# xmcd
#
# Track frame offsets:
#	150
#	18077
#	34578
#	48294
#	60632
#	74442
#	90527
#	108133
#	126050
#	137772
#	153455
#	168823
#	182021
#	197757
#
# Disc length: 2836 seconds
#
# Revision: 1
# Processed by: cddbd v1.5.1PL2 Copyright (c) Steve Scherf et al.
# Submitted via: audiograbber 1.83.01
#
DISCID=ae0b120e
DTITLE=Various Artist - HH Country Vol 81
DYEAR=1998
DGENRE=Country
TTITLE0=Alan Jackson - I'll Go On Loving You
TTITLE1=Brooks and Dunn - How Long Gone
TTITLE2=Alabama - How Do You Fall In Love
TTITLE3=Joe Diffie - Texas Size Heartache
TTITLE4=Patty Loveless - High On Love
TTITLE5=Keith Harling - Coming Back For You
TTITLE6=Lonestar - Everything's Changed
TTITLE7=Gary Allan - No Man In His Wrong Heart
TTITLE8=BR5-49 - Wild One
TTITLE9=Wade Hayes - How Do You Sleep At Night
TTITLE10=Kinleys - You Make It Seem So Easy
TTITLE11=Sara Evans - Crying Game
TTITLE12=Daryle Singietary - My Baby's Loving
TTITLE13=Ricochet - Honky Tonk Baby
EXTD=
EXTT0=
EXTT1=
EXTT2=
EXTT3=
EXTT4=
EXTT5=
EXTT6=
EXTT7=
EXTT8=
EXTT9=
EXTT10=
EXTT11=
EXTT12=
EXTT13=
PLAYORDER=
